<svg xmlns="http://www.w3.org/2000/svg" viewBox="0 0 750 750"><defs><style>.cls-1{fill:#4a8dd9;}.cls-2{fill:#fff;}.cls-3{fill:#222a63;}.cls-4{fill:#56cb80;}</style></defs><title>Ilustración_alert</title><g id="Ilustraciones"><circle class="cls-1" cx="375" cy="375" r="360"/><polygon class="cls-2" points="118.23 359.43 97.89 388.9 77.55 359.43 97.89 329.96 118.23 359.43"/><polygon class="cls-2" points="446.31 638.55 425.96 668.02 405.63 638.55 425.96 609.08 446.31 638.55"/><polygon class="cls-2" points="477.33 111.99 456.99 141.47 436.65 111.99 456.99 82.52 477.33 111.99"/><path class="cls-2" d="M217.27,170.2l8-8a3.2,3.2,0,1,0-4.52-4.52l-8,8-8-8a3.2,3.2,0,1,0-4.52,4.52l8,8-8,8a3.2,3.2,0,1,0,4.52,4.52l8-8,8,8a3.2,3.2,0,1,0,4.52-4.52Z"/><path class="cls-2" d="M594.49,324.06l8-8a3.2,3.2,0,0,0-4.52-4.52l-8,8-8-8a3.2,3.2,0,0,0-4.52,4.52l8,8-8,8a3.2,3.2,0,1,0,4.52,4.53l8-8,8,8a3.2,3.2,0,0,0,4.52-4.53Z"/><path class="cls-3" d="M327.78,197.22c21-36.35,73.45-36.35,94.44,0l86.9,150.52L596,498.26c21,36.35-5.24,81.78-47.21,81.78H201.19c-42,0-68.2-45.43-47.21-81.78l86.9-150.52Z"/><path class="cls-2" d="M353.78,217.7a24.51,24.51,0,0,1,42.44,0L480,362.75,563.7,507.8a24.5,24.5,0,0,1-21.21,36.75h-335A24.5,24.5,0,0,1,186.3,507.8l83.74-145Z"/><path class="cls-4" d="M360.62,418,347.31,311.11c-3.66-18.65,6.32-29.63,23-29.63h8.65c17.65,0,27.63,11,23.64,29.63L389.25,418c-2,10-5,15-12,15h-5C366,433,363,428,360.62,418Zm-11,62.25v-4.66c0-14.65,7.66-22.31,22.3-22.31h5.66c15.32,0,22.64,7.66,22.64,22.31v4.66c0,14.65-7.32,22.3-22.64,22.3h-5.66C357.3,502.52,349.64,494.87,349.64,480.22Z"/></g></svg>