<svg data-v-df92a104="" viewBox="0 0 68 70" version="1.1" xmlns="http://www.w3.org/2000/svg" xmlns:xlink="http://www.w3.org/1999/xlink" class="svg-key-close">
    <g data-v-df92a104="" id="Page-1" stroke="none" stroke-width="1" fill="none" fill-rule="evenodd">
        <rect data-v-df92a104="" id="Rectangle-3" fill="#009B3A" transform="translate(35.071068, 34.071068) rotate(-45.000000) translate(-35.071068, -34.071068) " x="33.5710678" y="25.5710678" width="3" height="17" rx="1.5" class="shape"></rect>
        <path data-v-df92a104="" id="Rectangle-2" d="M21.7034371,23.6612971 C22.3202551,22.743788 23.7063027,22 24.8251238,22 L48.3835852,22 C49.4908273,22 50.3884243,22.8974812 50.3884243,23.9998022 L50.3884243,45.2170526 C50.3884243,46.3215128 49.5024064,47.2168548 48.3835852,47.2168548 L24.8251238,47.2168548 C23.7178818,47.2168548 22.3154364,46.4658991 21.7034371,45.5555577 L15.4608082,36.2697245 C14.8439903,35.3522154 14.8488089,33.8574717 15.4608082,32.9471303 L21.7034371,23.6612971 Z" stroke="#009B3A" stroke-width="2" class="border"></path>
        <path data-v-df92a104="" id="Rectangle-3-Copy" d="M28.0797044,35.5710678 C27.2465074,35.5710678 26.5710678,34.9052706 26.5710678,34.0710678 C26.5710678,33.2426407 27.237488,32.5710678 28.0797044,32.5710678 L42.0624312,32.5710678 C42.8956282,32.5710678 43.5710678,33.236865 43.5710678,34.0710678 C43.5710678,34.8994949 42.9046477,35.5710678 42.0624312,35.5710678 L28.0797044,35.5710678 Z" fill="#009B3A" transform="translate(35.071068, 34.071068) rotate(-45.000000) translate(-35.071068, -34.071068) " class="shape"></path>
        <path data-v-df92a104="" id="Rectangle-3-Copy1" d="M28.0797044,35.5710678 C27.2465074,35.5710678 26.5710678,34.9052706 26.5710678,34.0710678 C26.5710678,33.2426407 27.237488,32.5710678 28.0797044,32.5710678 L42.0624312,32.5710678 C42.8956282,32.5710678 43.5710678,33.236865 43.5710678,34.0710678 C43.5710678,34.8994949 42.9046477,35.5710678 42.0624312,35.5710678 L28.0797044,35.5710678 Z" fill="#009B3A" transform="translate(35.071068, 34.071068) rotate(-45.000000) translate(-35.071068, -34.071068) " class="shape"></path>
    </g>
</svg>